<?xml version="1.0" encoding="UTF-8"?>
<svg width="24px" height="24px" viewBox="0 0 24 24" version="1.1" xmlns="http://www.w3.org/2000/svg">
    <g stroke="none" stroke-width="1" fill="none" fill-rule="evenodd">
        <path d="M19,4 L18,4 L18,2 L16,2 L16,4 L8,4 L8,2 L6,2 L6,4 L5,4 C3.89,4 3.01,4.9 3.01,6 L3,20 C3,21.1 3.89,22 5,22 L19,22 C20.1,22 21,21.1 21,20 L21,6 C21,4.9 20.1,4 19,4 Z M19,20 L5,20 L5,9 L19,9 L19,20 Z M19,7 L5,7 L5,6 L19,6 L19,7 Z M7,11 L9,11 L9,13 L7,13 L7,11 Z M11,11 L13,11 L13,13 L11,13 L11,11 Z M15,11 L17,11 L17,13 L15,13 L15,11 Z M7,14 L9,14 L9,16 L7,16 L7,14 Z M11,14 L13,14 L13,16 L11,16 L11,14 Z M15,14 L17,14 L17,16 L15,16 L15,14 Z" fill="#6B7280"/>
    </g>
</svg> 